<svg xmlns="http://www.w3.org/2000/svg" viewBox="0 0 405.68 413.92"><defs><style>.cls-1{fill:#fff;}.cls-2{fill:#3e4da1;}.cls-3{fill:#88171a;}</style></defs><g id="Layer_2" data-name="Layer 2"><g id="Layer_1-2" data-name="Layer 1"><polygon class="cls-1" points="200.69 47.86 212.78 58.81 214.82 193.66 289.68 187.32 301.79 198.28 313.87 209.21 215.18 217.57 217.49 370.41 205.4 359.46 193.3 348.51 191.35 219.59 116.48 225.93 104.39 214.98 92.28 204.02 190.99 195.67 188.59 36.91 200.69 47.86"/><path class="cls-1" d="M337.26,195.27l-12.11-11,47.31-4c6.67-8.27,9.72-15.9,9.32-23.23-1-18.64-24-39-50.65-62.53-9.6-8.5-19.81-17.75-29.25-26.47-26.07-24.15-48.59-45-67.24-44.17-5.07.23-10.14,2.11-15.29,5.73l-9-8.15-9-8.14C211.57,4.92,222.2.55,233.57.05c28.62-1.26,54.52,22.74,84.52,50.5,9.31,8.6,19.38,17.72,28.86,26.12,30.61,27.1,57.06,50.48,58.65,79.08.83,15-5.2,29.44-18.42,44.05L384,203.28l-34.68,2.94Z"/><path class="cls-1" d="M56.8,207l12.12,11L81,228.93l-47.29,4c-7,8.71-10.21,16.89-9.8,24.9,1.06,21.07,26.48,43.95,55.88,70.45,2.39,2.13,4.82,4.33,7.26,6.55s4.88,4.41,7.25,6.58C123.59,368,148.87,391,170,390c6.85-.33,13.57-3.32,20.33-9.11l8.93,8.08,8.89,8c-11.59,10.64-23.75,16.17-37,16.82-31,1.5-59.69-24.58-92.87-54.79-4.75-4.32-9.67-8.78-14.45-13.07-2.33-2.11-4.65-4.18-6.93-6.25C26.55,312.3,1.53,287.85.07,259c-.8-15.74,5.38-30.65,18.91-45.6L22.14,210Z"/><path class="cls-2" d="M232.81,172.31v-1.78l-1.43-94.69v-.29a47.32,47.32,0,0,1,13.89,3.85,48.36,48.36,0,0,1,12.5,8.2,47.7,47.7,0,0,1,15.38,29.46,50.21,50.21,0,0,0,.27,9.34v0a47.74,47.74,0,0,0,12.43,26.49,41,41,0,0,0,3,2.93,47.74,47.74,0,0,0,17.8,10.2l-30,2.53Z"/><path class="cls-3" d="M151.42,292.74c-1.49-10.45,0-25.6,15-44.68a1.44,1.44,0,0,0,.18-2.1,1.46,1.46,0,0,0-2.11.36c-16.19,16.44-30.43,19.95-40.87,19.81-18.49-.23-32.87-12-45.91-14.4a19.59,19.59,0,0,0-12.43,1.37c-.15.07-.68.33-1.44.77-2.64,1.61-8.07,5.61-9.19,12.19-1.83,10.91,9.64,20.53,40.63,48.3,41.12,36.87,52.43,48.19,63.59,44.68,7.46-2.35,10.52-10,10.88-11C176,331.7,154.78,316.51,151.42,292.74Z"/></g></g></svg>